<svg width="20" height="20" viewBox="0 0 20 20" fill="none" xmlns="http://www.w3.org/2000/svg">
<path d="M14.1666 18.3334H16.6666C17.1087 18.3334 17.5326 18.1578 17.8452 17.8453C18.1577 17.5327 18.3333 17.1088 18.3333 16.6667V10.8334C18.3333 10.3914 18.1577 9.96746 17.8452 9.6549C17.5326 9.34234 17.1087 9.16675 16.6666 9.16675H14.1666M8.33331 7.50008V4.16675C8.33331 3.50371 8.59671 2.86782 9.06555 2.39898C9.53439 1.93014 10.1703 1.66675 10.8333 1.66675L14.1666 9.16675V18.3334H4.76665C4.36471 18.338 3.97467 18.1971 3.66839 17.9368C3.36212 17.6764 3.16025 17.3142 3.09998 16.9167L1.94998 9.41675C1.91372 9.17788 1.92983 8.93398 1.9972 8.70196C2.06456 8.46993 2.18156 8.25533 2.3401 8.07301C2.49863 7.89069 2.69491 7.74502 2.91534 7.6461C3.13576 7.54717 3.37506 7.49735 3.61665 7.50008H8.33331Z" stroke="#222222" stroke-width="2" stroke-linecap="round" stroke-linejoin="round"/>
</svg>
