<svg width="20" height="20" viewBox="0 0 20 20" fill="none" xmlns="http://www.w3.org/2000/svg">
<path d="M14.1666 18.2265H16.6666C17.1087 18.2265 17.5326 18.0509 17.8452 17.7383C18.1577 17.4258 18.3333 17.0018 18.3333 16.5598V10.7265C18.3333 10.2845 18.1577 9.86053 17.8452 9.54797C17.5326 9.23541 17.1087 9.05981 16.6666 9.05981H14.1666M8.33331 7.39315V4.05981C8.33331 3.39677 8.59671 2.76089 9.06555 2.29205C9.53439 1.82321 10.1703 1.55981 10.8333 1.55981L14.1666 9.05981V18.2265H4.76665C4.36471 18.231 3.97467 18.0902 3.66839 17.8298C3.36212 17.5695 3.16025 17.2072 3.09998 16.8098L1.94998 9.30981C1.91372 9.07094 1.92983 8.82705 1.9972 8.59502C2.06456 8.363 2.18156 8.14839 2.3401 7.96608C2.49863 7.78376 2.69491 7.63809 2.91534 7.53916C3.13576 7.44023 3.37506 7.39041 3.61665 7.39315H8.33331Z" stroke="#3D67FF" stroke-width="2" stroke-linecap="round" stroke-linejoin="round"/>
</svg>
