<svg width="20" height="20" viewBox="0 0 20 20" fill="none" xmlns="http://www.w3.org/2000/svg">
<path d="M2.49996 9.99992H7.49996C7.72097 9.99992 7.93293 9.91212 8.08922 9.75584C8.2455 9.59956 8.33329 9.3876 8.33329 9.16658V4.16659C8.33329 3.94557 8.2455 3.73361 8.08922 3.57733C7.93293 3.42105 7.72097 3.33325 7.49996 3.33325H2.49996C2.27895 3.33325 2.06698 3.42105 1.9107 3.57733C1.75442 3.73361 1.66663 3.94557 1.66663 4.16659V9.16658C1.66663 9.3876 1.75442 9.59956 1.9107 9.75584C2.06698 9.91212 2.27895 9.99992 2.49996 9.99992ZM3.33329 4.99992H6.66663V8.33325H3.33329V4.99992ZM10.8333 6.66658H17.5C17.721 6.66658 17.9329 6.57879 18.0892 6.42251C18.2455 6.26623 18.3333 6.05427 18.3333 5.83325C18.3333 5.61224 18.2455 5.40028 18.0892 5.244C17.9329 5.08772 17.721 4.99992 17.5 4.99992H10.8333C10.6123 4.99992 10.4003 5.08772 10.244 5.244C10.0878 5.40028 9.99996 5.61224 9.99996 5.83325C9.99996 6.05427 10.0878 6.26623 10.244 6.42251C10.4003 6.57879 10.6123 6.66658 10.8333 6.66658ZM10.8333 14.9999H2.49996C2.27895 14.9999 2.06698 15.0877 1.9107 15.244C1.75442 15.4003 1.66663 15.6122 1.66663 15.8333C1.66663 16.0543 1.75442 16.2662 1.9107 16.4225C2.06698 16.5788 2.27895 16.6666 2.49996 16.6666H10.8333C11.0543 16.6666 11.2663 16.5788 11.4225 16.4225C11.5788 16.2662 11.6666 16.0543 11.6666 15.8333C11.6666 15.6122 11.5788 15.4003 11.4225 15.244C11.2663 15.0877 11.0543 14.9999 10.8333 14.9999ZM17.5 11.6666H2.49996C2.27895 11.6666 2.06698 11.7544 1.9107 11.9107C1.75442 12.0669 1.66663 12.2789 1.66663 12.4999C1.66663 12.7209 1.75442 12.9329 1.9107 13.0892C2.06698 13.2455 2.27895 13.3333 2.49996 13.3333H17.5C17.721 13.3333 17.9329 13.2455 18.0892 13.0892C18.2455 12.9329 18.3333 12.7209 18.3333 12.4999C18.3333 12.2789 18.2455 12.0669 18.0892 11.9107C17.9329 11.7544 17.721 11.6666 17.5 11.6666ZM17.5 8.33325H10.8333C10.6123 8.33325 10.4003 8.42105 10.244 8.57733C10.0878 8.73361 9.99996 8.94557 9.99996 9.16658C9.99996 9.3876 10.0878 9.59956 10.244 9.75584C10.4003 9.91212 10.6123 9.99992 10.8333 9.99992H17.5C17.721 9.99992 17.9329 9.91212 18.0892 9.75584C18.2455 9.59956 18.3333 9.3876 18.3333 9.16658C18.3333 8.94557 18.2455 8.73361 18.0892 8.57733C17.9329 8.42105 17.721 8.33325 17.5 8.33325Z" fill="#A8ABBB"/>
</svg>
