<svg width="209" height="49" viewBox="0 0 209 49" fill="none" xmlns="http://www.w3.org/2000/svg">
<path d="M0 16C0 8.45753 0 4.68629 2.34315 2.34315C4.68629 0 8.45753 0 16 0H193C200.542 0 204.314 0 206.657 2.34315C209 4.68629 209 8.45753 209 16V33C209 40.5425 209 44.3137 206.657 46.6569C204.314 49 200.542 49 193 49H16C8.45753 49 4.68629 49 2.34315 46.6569C0 44.3137 0 40.5425 0 33V16Z" fill="#F9F9F9"/>
<path d="M58.6106 20.81V23.26H61.9006V24.814H58.6106V27.404H62.3206V29H56.6506V19.214H62.3206V20.81H58.6106ZM68.3857 29L66.7897 26.592L65.3757 29H63.2757L65.8097 25.108L63.2477 21.244H65.4597L67.0417 23.638L68.4697 21.244H70.5697L68.0217 25.108L70.5977 29H68.3857ZM73.9443 22.854V26.606C73.9443 26.8673 74.005 27.0587 74.1263 27.18C74.257 27.292 74.4716 27.348 74.7703 27.348H75.6803V29H74.4483C72.7963 29 71.9703 28.1973 71.9703 26.592V22.854H71.0463V21.244H71.9703V19.326H73.9443V21.244H75.6803V22.854H73.9443ZM84.3 24.954C84.3 25.234 84.2814 25.486 84.244 25.71H78.574C78.6207 26.27 78.8167 26.7087 79.162 27.026C79.5074 27.3433 79.932 27.502 80.436 27.502C81.164 27.502 81.682 27.1893 81.99 26.564H84.104C83.88 27.3107 83.4507 27.9267 82.816 28.412C82.1814 28.888 81.402 29.126 80.478 29.126C79.7314 29.126 79.0594 28.9627 78.462 28.636C77.874 28.3 77.412 27.8287 77.076 27.222C76.7494 26.6153 76.586 25.9153 76.586 25.122C76.586 24.3193 76.7494 23.6147 77.076 23.008C77.4027 22.4013 77.86 21.9347 78.448 21.608C79.036 21.2813 79.7127 21.118 80.478 21.118C81.2154 21.118 81.8734 21.2767 82.452 21.594C83.04 21.9113 83.4927 22.364 83.81 22.952C84.1367 23.5307 84.3 24.198 84.3 24.954ZM82.27 24.394C82.2607 23.89 82.0787 23.4887 81.724 23.19C81.3694 22.882 80.9354 22.728 80.422 22.728C79.9367 22.728 79.526 22.8773 79.19 23.176C78.8634 23.4653 78.6627 23.8713 78.588 24.394H82.27ZM90.0286 21.132C90.9526 21.132 91.6993 21.426 92.2686 22.014C92.838 22.5927 93.1226 23.4047 93.1226 24.45V29H91.1626V24.716C91.1626 24.1 91.0086 23.6287 90.7006 23.302C90.3926 22.966 89.9726 22.798 89.4406 22.798C88.8993 22.798 88.47 22.966 88.1526 23.302C87.8446 23.6287 87.6906 24.1 87.6906 24.716V29H85.7306V21.244H87.6906V22.21C87.952 21.874 88.2833 21.6127 88.6846 21.426C89.0953 21.23 89.5433 21.132 90.0286 21.132ZM94.4825 25.094C94.4825 24.31 94.6365 23.6147 94.9445 23.008C95.2618 22.4013 95.6912 21.9347 96.2325 21.608C96.7738 21.2813 97.3758 21.118 98.0385 21.118C98.5425 21.118 99.0232 21.23 99.4805 21.454C99.9378 21.6687 100.302 21.958 100.573 22.322V18.64H102.561V29H100.573V27.852C100.33 28.2347 99.9892 28.5427 99.5505 28.776C99.1118 29.0093 98.6032 29.126 98.0245 29.126C97.3712 29.126 96.7738 28.958 96.2325 28.622C95.6912 28.286 95.2618 27.8147 94.9445 27.208C94.6365 26.592 94.4825 25.8873 94.4825 25.094ZM100.587 25.122C100.587 24.646 100.493 24.24 100.307 23.904C100.12 23.5587 99.8678 23.2973 99.5505 23.12C99.2332 22.9333 98.8925 22.84 98.5285 22.84C98.1645 22.84 97.8285 22.9287 97.5205 23.106C97.2125 23.2833 96.9605 23.5447 96.7645 23.89C96.5778 24.226 96.4845 24.6273 96.4845 25.094C96.4845 25.5607 96.5778 25.9713 96.7645 26.326C96.9605 26.6713 97.2125 26.9373 97.5205 27.124C97.8378 27.3107 98.1738 27.404 98.5285 27.404C98.8925 27.404 99.2332 27.3153 99.5505 27.138C99.8678 26.9513 100.12 26.69 100.307 26.354C100.493 26.0087 100.587 25.598 100.587 25.122ZM113.803 27.138H109.911L109.267 29H107.209L110.723 19.214H113.005L116.519 29H114.447L113.803 27.138ZM113.271 25.57L111.857 21.482L110.443 25.57H113.271ZM128.584 21.244L126.316 29H124.202L122.788 23.582L121.374 29H119.246L116.964 21.244H118.952L120.324 27.152L121.808 21.244H123.88L125.336 27.138L126.708 21.244H128.584ZM129.141 25.094C129.141 24.31 129.295 23.6147 129.603 23.008C129.92 22.4013 130.345 21.9347 130.877 21.608C131.418 21.2813 132.02 21.118 132.683 21.118C133.261 21.118 133.765 21.2347 134.195 21.468C134.633 21.7013 134.983 21.9953 135.245 22.35V21.244H137.219V29H135.245V27.866C134.993 28.23 134.643 28.5333 134.195 28.776C133.756 29.0093 133.247 29.126 132.669 29.126C132.015 29.126 131.418 28.958 130.877 28.622C130.345 28.286 129.92 27.8147 129.603 27.208C129.295 26.592 129.141 25.8873 129.141 25.094ZM135.245 25.122C135.245 24.646 135.151 24.24 134.965 23.904C134.778 23.5587 134.526 23.2973 134.209 23.12C133.891 22.9333 133.551 22.84 133.187 22.84C132.823 22.84 132.487 22.9287 132.179 23.106C131.871 23.2833 131.619 23.5447 131.423 23.89C131.236 24.226 131.143 24.6273 131.143 25.094C131.143 25.5607 131.236 25.9713 131.423 26.326C131.619 26.6713 131.871 26.9373 132.179 27.124C132.496 27.3107 132.832 27.404 133.187 27.404C133.551 27.404 133.891 27.3153 134.209 27.138C134.526 26.9513 134.778 26.69 134.965 26.354C135.151 26.0087 135.245 25.598 135.245 25.122ZM141.093 22.448C141.345 22.0373 141.672 21.7153 142.073 21.482C142.484 21.2487 142.95 21.132 143.473 21.132V23.19H142.955C142.339 23.19 141.872 23.3347 141.555 23.624C141.247 23.9133 141.093 24.4173 141.093 25.136V29H139.133V21.244H141.093V22.448ZM144.289 25.094C144.289 24.31 144.443 23.6147 144.751 23.008C145.068 22.4013 145.498 21.9347 146.039 21.608C146.58 21.2813 147.182 21.118 147.845 21.118C148.349 21.118 148.83 21.23 149.287 21.454C149.744 21.6687 150.108 21.958 150.379 22.322V18.64H152.367V29H150.379V27.852C150.136 28.2347 149.796 28.5427 149.357 28.776C148.918 29.0093 148.41 29.126 147.831 29.126C147.178 29.126 146.58 28.958 146.039 28.622C145.498 28.286 145.068 27.8147 144.751 27.208C144.443 26.592 144.289 25.8873 144.289 25.094ZM150.393 25.122C150.393 24.646 150.3 24.24 150.113 23.904C149.926 23.5587 149.674 23.2973 149.357 23.12C149.04 22.9333 148.699 22.84 148.335 22.84C147.971 22.84 147.635 22.9287 147.327 23.106C147.019 23.2833 146.767 23.5447 146.571 23.89C146.384 24.226 146.291 24.6273 146.291 25.094C146.291 25.5607 146.384 25.9713 146.571 26.326C146.767 26.6713 147.019 26.9373 147.327 27.124C147.644 27.3107 147.98 27.404 148.335 27.404C148.699 27.404 149.04 27.3153 149.357 27.138C149.674 26.9513 149.926 26.69 150.113 26.354C150.3 26.0087 150.393 25.598 150.393 25.122Z" fill="#A8ABBB"/>
<path d="M2.34315 46.6569L2.6967 46.3033L2.34315 46.6569ZM206.657 46.6569L207.01 47.0104L206.657 46.6569ZM206.657 2.34315L206.303 2.6967L206.657 2.34315ZM2.34315 2.34315L1.98959 1.98959L2.34315 2.34315ZM16 0.5H193V-0.5H16V0.5ZM208.5 16V33H209.5V16H208.5ZM193 48.5H16V49.5H193V48.5ZM0.5 33V16H-0.5V33H0.5ZM16 48.5C12.2146 48.5 9.4259 48.4989 7.28845 48.2116C5.16538 47.9261 3.75989 47.3665 2.6967 46.3033L1.98959 47.0104C3.26955 48.2904 4.92125 48.9023 7.1552 49.2026C9.37477 49.5011 12.2429 49.5 16 49.5V48.5ZM-0.5 33C-0.5 36.7571 -0.501062 39.6252 -0.202648 41.8448C0.0976993 44.0788 0.709635 45.7304 1.98959 47.0104L2.6967 46.3033C1.63351 45.2401 1.07387 43.8346 0.788435 41.7116C0.501062 39.5741 0.5 36.7854 0.5 33H-0.5ZM208.5 33C208.5 36.7854 208.499 39.5741 208.212 41.7116C207.926 43.8346 207.366 45.2401 206.303 46.3033L207.01 47.0104C208.29 45.7304 208.902 44.0788 209.203 41.8448C209.501 39.6252 209.5 36.7571 209.5 33H208.5ZM193 49.5C196.757 49.5 199.625 49.5011 201.845 49.2026C204.079 48.9023 205.73 48.2904 207.01 47.0104L206.303 46.3033C205.24 47.3665 203.835 47.9261 201.712 48.2116C199.574 48.4989 196.785 48.5 193 48.5V49.5ZM193 0.5C196.785 0.5 199.574 0.501062 201.712 0.788435C203.835 1.07387 205.24 1.63351 206.303 2.6967L207.01 1.98959C205.73 0.709635 204.079 0.0976993 201.845 -0.202648C199.625 -0.501062 196.757 -0.5 193 -0.5V0.5ZM209.5 16C209.5 12.2429 209.501 9.37477 209.203 7.1552C208.902 4.92125 208.29 3.26955 207.01 1.98959L206.303 2.6967C207.366 3.75989 207.926 5.16538 208.212 7.28845C208.499 9.4259 208.5 12.2146 208.5 16H209.5ZM16 -0.5C12.2429 -0.5 9.37477 -0.501062 7.1552 -0.202648C4.92125 0.0976993 3.26955 0.709635 1.98959 1.98959L2.6967 2.6967C3.75989 1.63351 5.16538 1.07387 7.28845 0.788435C9.4259 0.501062 12.2146 0.5 16 0.5V-0.5ZM0.5 16C0.5 12.2146 0.501062 9.4259 0.788435 7.28845C1.07387 5.16538 1.63351 3.75989 2.6967 2.6967L1.98959 1.98959C0.709635 3.26955 0.0976993 4.92125 -0.202648 7.1552C-0.501062 9.37477 -0.5 12.2429 -0.5 16H0.5Z" fill="url(#paint0_linear_70_1371)" fill-opacity="0.4"/>
<defs>
<linearGradient id="paint0_linear_70_1371" x1="20.5477" y1="-20.0454" x2="205.735" y2="64.5028" gradientUnits="userSpaceOnUse">
<stop stop-color="white"/>
<stop offset="1" stop-color="#D6D9E2" stop-opacity="0"/>
</linearGradient>
</defs>
</svg>
