<svg width="20" height="20" viewBox="0 0 20 20" fill="none" xmlns="http://www.w3.org/2000/svg">
<g clip-path="url(#clip0_73_1780)">
<path d="M13.3333 13.3333L10 10L6.66667 13.3333" stroke="#A8ABBB" stroke-width="2" stroke-linecap="round" stroke-linejoin="round"/>
<path d="M10 10V17.5" stroke="#A8ABBB" stroke-width="2" stroke-linecap="round" stroke-linejoin="round"/>
<path d="M16.9917 15.3249C17.8045 14.8818 18.4465 14.1806 18.8166 13.3321C19.1866 12.4835 19.2635 11.5359 19.0352 10.6388C18.8068 9.7417 18.2863 8.94616 17.5556 8.37778C16.8249 7.80939 15.9257 7.50052 15 7.4999H13.95C13.6978 6.52427 13.2276 5.61852 12.575 4.85073C11.9223 4.08295 11.1041 3.47311 10.1818 3.06708C9.25947 2.66104 8.25714 2.46937 7.25011 2.50647C6.24308 2.54358 5.25757 2.80849 4.36766 3.28129C3.47775 3.7541 2.70661 4.42249 2.1122 5.23622C1.51779 6.04996 1.11559 6.98785 0.935829 7.9794C0.756071 8.97095 0.803434 9.99035 1.07436 10.961C1.34528 11.9316 1.83271 12.8281 2.50001 13.5832" stroke="#A8ABBB" stroke-width="2" stroke-linecap="round" stroke-linejoin="round"/>
<path d="M13.3333 13.3333L10 10L6.66667 13.3333" stroke="#A8ABBB" stroke-width="2" stroke-linecap="round" stroke-linejoin="round"/>
</g>
<defs>
<clipPath id="clip0_73_1780">
<rect width="20" height="20" fill="white"/>
</clipPath>
</defs>
</svg>
