<svg width="20" height="20" viewBox="0 0 20 20" fill="none" xmlns="http://www.w3.org/2000/svg">
<path d="M17.5 3.33341H15V2.50008C15 2.27907 14.9122 2.06711 14.7559 1.91083C14.5996 1.75455 14.3877 1.66675 14.1667 1.66675H5.83334C5.61232 1.66675 5.40036 1.75455 5.24408 1.91083C5.0878 2.06711 5.00001 2.27907 5.00001 2.50008V3.33341H2.50001C2.27899 3.33341 2.06703 3.42121 1.91075 3.57749C1.75447 3.73377 1.66667 3.94573 1.66667 4.16675V6.66675C1.66667 7.5508 2.01786 8.39865 2.64298 9.02377C3.2681 9.64889 4.11595 10.0001 5.00001 10.0001H6.28334C7.03712 10.841 8.05339 11.402 9.16667 11.5917V13.3334H8.33334C7.6703 13.3334 7.03441 13.5968 6.56557 14.0656C6.09673 14.5345 5.83334 15.1704 5.83334 15.8334V17.5001C5.83334 17.7211 5.92114 17.9331 6.07742 18.0893C6.2337 18.2456 6.44566 18.3334 6.66667 18.3334H13.3333C13.5544 18.3334 13.7663 18.2456 13.9226 18.0893C14.0789 17.9331 14.1667 17.7211 14.1667 17.5001V15.8334C14.1667 15.1704 13.9033 14.5345 13.4344 14.0656C12.9656 13.5968 12.3297 13.3334 11.6667 13.3334H10.8333V11.5917C11.9466 11.402 12.9629 10.841 13.7167 10.0001H15C15.8841 10.0001 16.7319 9.64889 17.357 9.02377C17.9821 8.39865 18.3333 7.5508 18.3333 6.66675V4.16675C18.3333 3.94573 18.2455 3.73377 18.0893 3.57749C17.933 3.42121 17.721 3.33341 17.5 3.33341ZM5.00001 8.33342C4.55798 8.33342 4.13405 8.15782 3.82149 7.84526C3.50893 7.5327 3.33334 7.10878 3.33334 6.66675V5.00008H5.00001V6.66675C5.00184 7.23484 5.10047 7.79846 5.29167 8.33342H5.00001ZM11.6667 15.0001C11.8877 15.0001 12.0996 15.0879 12.2559 15.2442C12.4122 15.4004 12.5 15.6124 12.5 15.8334V16.6667H7.50001V15.8334C7.50001 15.6124 7.5878 15.4004 7.74408 15.2442C7.90036 15.0879 8.11233 15.0001 8.33334 15.0001H11.6667ZM13.3333 6.66675C13.3333 7.5508 12.9822 8.39865 12.357 9.02377C11.7319 9.64889 10.8841 10.0001 10 10.0001C9.11595 10.0001 8.2681 9.64889 7.64298 9.02377C7.01786 8.39865 6.66667 7.5508 6.66667 6.66675V3.33341H13.3333V6.66675ZM16.6667 6.66675C16.6667 7.10878 16.4911 7.5327 16.1785 7.84526C15.866 8.15782 15.442 8.33342 15 8.33342H14.7083C14.8995 7.79846 14.9982 7.23484 15 6.66675V5.00008H16.6667V6.66675Z" fill="#A8ABBB"/>
</svg>
