<svg width="20" height="20" viewBox="0 0 20 20" fill="none" xmlns="http://www.w3.org/2000/svg">
<path d="M10 1.66675C8.38373 1.66982 6.80324 2.14284 5.45102 3.0282C4.09881 3.91355 3.03325 5.17303 2.38412 6.65322C1.73499 8.13341 1.53031 9.77043 1.79502 11.3649C2.05973 12.9593 2.7824 14.4424 3.875 15.6334C4.65535 16.4793 5.60245 17.1544 6.65661 17.6161C7.71078 18.0778 8.84915 18.3162 10 18.3162C11.1508 18.3162 12.2892 18.0778 13.3434 17.6161C14.3975 17.1544 15.3446 16.4793 16.125 15.6334C17.2176 14.4424 17.9403 12.9593 18.205 11.3649C18.4697 9.77043 18.265 8.13341 17.6159 6.65322C16.9668 5.17303 15.9012 3.91355 14.549 3.0282C13.1968 2.14284 11.6163 1.66982 10 1.66675ZM10 16.6667C8.27372 16.6641 6.61576 15.992 5.375 14.7917C5.7517 13.8747 6.39253 13.0903 7.21604 12.5383C8.03956 11.9863 9.00859 11.6916 10 11.6916C10.9914 11.6916 11.9604 11.9863 12.784 12.5383C13.6075 13.0903 14.2483 13.8747 14.625 14.7917C13.3842 15.992 11.7263 16.6641 10 16.6667ZM8.33333 8.33342C8.33333 8.00378 8.43108 7.68155 8.61422 7.40746C8.79735 7.13338 9.05765 6.91976 9.36219 6.79362C9.66674 6.66747 10.0018 6.63446 10.3251 6.69877C10.6485 6.76308 10.9454 6.92182 11.1785 7.1549C11.4116 7.38799 11.5703 7.68496 11.6346 8.00826C11.6989 8.33157 11.6659 8.66668 11.5398 8.97122C11.4137 9.27576 11.2 9.53606 10.9259 9.7192C10.6519 9.90233 10.3296 10.0001 10 10.0001C9.55797 10.0001 9.13405 9.82449 8.82149 9.51193C8.50893 9.19937 8.33333 8.77544 8.33333 8.33342ZM15.7583 13.3334C15.0138 12.0599 13.8678 11.0693 12.5 10.5167C12.9243 10.0356 13.2008 9.4423 13.2962 8.80795C13.3917 8.1736 13.3021 7.52518 13.0381 6.9405C12.7742 6.35582 12.3472 5.85971 11.8083 5.51172C11.2694 5.16373 10.6415 4.97862 10 4.97862C9.35851 4.97862 8.73064 5.16373 8.19174 5.51172C7.65284 5.85971 7.22581 6.35582 6.96187 6.9405C6.69794 7.52518 6.60832 8.1736 6.70377 8.80795C6.79923 9.4423 7.07569 10.0356 7.5 10.5167C6.13216 11.0693 4.98622 12.0599 4.24167 13.3334C3.64829 12.3227 3.33477 11.1721 3.33333 10.0001C3.33333 8.23197 4.03571 6.53628 5.28595 5.28604C6.5362 4.03579 8.23189 3.33341 10 3.33341C11.7681 3.33341 13.4638 4.03579 14.714 5.28604C15.9643 6.53628 16.6667 8.23197 16.6667 10.0001C16.6652 11.1721 16.3517 12.3227 15.7583 13.3334Z" fill="#A8ABBB"/>
</svg>
