<svg width="20" height="20" viewBox="0 0 20 20" fill="none" xmlns="http://www.w3.org/2000/svg">
<path d="M16.6593 1.66821C16.5499 1.66815 16.4415 1.68966 16.3404 1.73152C16.2392 1.77338 16.1473 1.83476 16.0699 1.91215C15.9926 1.98955 15.9312 2.08144 15.8893 2.18257C15.8475 2.2837 15.8259 2.39209 15.826 2.50155V3.03215C15.1232 3.90357 14.2349 4.60731 13.2258 5.09214C12.2167 5.57698 11.1122 5.83072 9.99268 5.83488H4.99268C4.32986 5.8356 3.69439 6.09923 3.22571 6.56791C2.75702 7.03659 2.4934 7.67206 2.49268 8.33488V10.0015C2.4934 10.6644 2.75702 11.2998 3.22571 11.7685C3.69439 12.2372 4.32986 12.5008 4.99268 12.5015H5.39583L3.39356 17.1735C3.33915 17.3003 3.31706 17.4385 3.32927 17.5759C3.34148 17.7132 3.38762 17.8454 3.46354 17.9605C3.53945 18.0757 3.64277 18.1701 3.76422 18.2355C3.88566 18.3008 4.02144 18.335 4.15934 18.3349H7.49268C7.6558 18.335 7.81536 18.2871 7.95151 18.1973C8.08767 18.1074 8.19441 17.9795 8.25847 17.8295L10.5283 12.5332C11.5538 12.6085 12.553 12.8932 13.4642 13.3698C14.3754 13.8464 15.1792 14.5047 15.826 15.3041V15.8349C15.826 16.0559 15.9138 16.2679 16.0701 16.4241C16.2264 16.5804 16.4383 16.6682 16.6593 16.6682C16.8804 16.6682 17.0923 16.5804 17.2486 16.4241C17.4049 16.2679 17.4927 16.0559 17.4927 15.8349V2.50155C17.4927 2.39209 17.4712 2.2837 17.4294 2.18257C17.3875 2.08143 17.3261 1.98954 17.2487 1.91215C17.1713 1.83475 17.0795 1.77337 16.9783 1.73152C16.8772 1.68966 16.7688 1.66815 16.6593 1.66821ZM4.99268 10.8349C4.77171 10.8347 4.55983 10.7469 4.40358 10.5906C4.24734 10.4344 4.15949 10.2225 4.15934 10.0015V8.33488C4.15949 8.11391 4.24734 7.90204 4.40359 7.74579C4.55983 7.58954 4.77171 7.5017 4.99268 7.50155H5.82601V10.8349H4.99268ZM6.94336 16.6682H5.42318L7.20866 12.5015H8.72884L6.94336 16.6682ZM15.826 12.9364C14.1829 11.5827 12.1216 10.8401 9.99268 10.8348H7.49268V7.5015H9.99268C12.1216 7.49606 14.1829 6.7533 15.826 5.39955V12.9364Z" fill="#A8ABBB"/>
</svg>
