<svg width="12" height="16" viewBox="0 0 12 16" fill="none" xmlns="http://www.w3.org/2000/svg">
<path d="M6.32 15.14C5.29333 15.14 4.37333 14.9733 3.56 14.64C2.74667 14.3067 2.09333 13.8133 1.6 13.16C1.12 12.5067 0.866667 11.72 0.84 10.8H4.48C4.53333 11.32 4.71333 11.72 5.02 12C5.32667 12.2667 5.72667 12.4 6.22 12.4C6.72667 12.4 7.12667 12.2867 7.42 12.06C7.71333 11.82 7.86 11.4933 7.86 11.08C7.86 10.7333 7.74 10.4467 7.5 10.22C7.27333 9.99333 6.98667 9.80667 6.64 9.66C6.30667 9.51333 5.82667 9.34667 5.2 9.16C4.29333 8.88 3.55333 8.6 2.98 8.32C2.40667 8.04 1.91333 7.62667 1.5 7.08C1.08667 6.53333 0.88 5.82 0.88 4.94C0.88 3.63333 1.35333 2.61333 2.3 1.88C3.24667 1.13333 4.48 0.76 6 0.76C7.54667 0.76 8.79333 1.13333 9.74 1.88C10.6867 2.61333 11.1933 3.64 11.26 4.96H7.56C7.53333 4.50667 7.36667 4.15333 7.06 3.9C6.75333 3.63333 6.36 3.5 5.88 3.5C5.46667 3.5 5.13333 3.61333 4.88 3.84C4.62667 4.05333 4.5 4.36667 4.5 4.78C4.5 5.23333 4.71333 5.58667 5.14 5.84C5.56667 6.09333 6.23333 6.36667 7.14 6.66C8.04667 6.96667 8.78 7.26 9.34 7.54C9.91333 7.82 10.4067 8.22667 10.82 8.76C11.2333 9.29333 11.44 9.98 11.44 10.82C11.44 11.62 11.2333 12.3467 10.82 13C10.42 13.6533 9.83333 14.1733 9.06 14.56C8.28667 14.9467 7.37333 15.14 6.32 15.14Z" fill="#A8ABBB"/>
</svg>
