<svg width="96" height="20" viewBox="0 0 96 20" fill="none" xmlns="http://www.w3.org/2000/svg">
<path d="M91 6.66675C91 5.34067 90.4732 4.0689 89.5355 3.13121C88.5979 2.19353 87.3261 1.66675 86 1.66675C84.6739 1.66675 83.4021 2.19353 82.4645 3.13121C81.5268 4.0689 81 5.34067 81 6.66675C81 12.5001 78.5 14.1667 78.5 14.1667H93.5C93.5 14.1667 91 12.5001 91 6.66675Z" stroke="#A8ABBB" stroke-width="2" stroke-linecap="round" stroke-linejoin="round"/>
<path d="M87.4417 17.5C87.2951 17.7526 87.0849 17.9622 86.8318 18.1079C86.5788 18.2537 86.292 18.3304 86 18.3304C85.708 18.3304 85.4211 18.2537 85.1681 18.1079C84.9151 17.9622 84.7048 17.7526 84.5583 17.5" stroke="#A8ABBB" stroke-width="2" stroke-linecap="round" stroke-linejoin="round"/>
<path d="M18.0917 16.9083L15 13.8416C16.2001 12.3453 16.7813 10.446 16.6241 8.53434C16.4668 6.62267 15.5831 4.84391 14.1546 3.56379C12.7262 2.28368 10.8615 1.59951 8.94414 1.65198C7.02674 1.70445 5.20231 2.48956 3.84599 3.84587C2.48968 5.20219 1.70457 7.02662 1.6521 8.94402C1.59963 10.8614 2.2838 12.7261 3.56391 14.1545C4.84403 15.583 6.62279 16.4667 8.53446 16.6239C10.4461 16.7812 12.3454 16.2 13.8417 14.9999L16.9084 18.0666C16.9858 18.1447 17.078 18.2067 17.1796 18.249C17.2811 18.2913 17.39 18.3131 17.5 18.3131C17.6101 18.3131 17.719 18.2913 17.8205 18.249C17.9221 18.2067 18.0142 18.1447 18.0917 18.0666C18.2419 17.9112 18.3259 17.7035 18.3259 17.4874C18.3259 17.2713 18.2419 17.0636 18.0917 16.9083V16.9083ZM9.16671 14.9999C8.01298 14.9999 6.88517 14.6578 5.92588 14.0168C4.9666 13.3759 4.21892 12.4648 3.77741 11.3989C3.3359 10.333 3.22038 9.16012 3.44546 8.02856C3.67054 6.897 4.22611 5.8576 5.04192 5.0418C5.85773 4.22599 6.89713 3.67042 8.02868 3.44534C9.16024 3.22026 10.3331 3.33578 11.399 3.77729C12.4649 4.2188 13.376 4.96647 14.0169 5.92576C14.6579 6.88505 15 8.01286 15 9.16659C15 10.7137 14.3855 12.1974 13.2915 13.2914C12.1975 14.3853 10.7138 14.9999 9.16671 14.9999V14.9999Z" fill="#A8ABBB"/>
<path d="M44.6666 9.16675C44.5018 9.16675 44.3407 9.21562 44.2037 9.30719C44.0666 9.39876 43.9598 9.52891 43.8967 9.68118C43.8337 9.83345 43.8172 10.001 43.8493 10.1627C43.8815 10.3243 43.9608 10.4728 44.0774 10.5893C44.1939 10.7059 44.3424 10.7852 44.5041 10.8174C44.6657 10.8496 44.8333 10.8331 44.9855 10.77C45.1378 10.7069 45.268 10.6001 45.3595 10.4631C45.4511 10.326 45.5 10.1649 45.5 10.0001C45.5 9.77907 45.4122 9.56711 45.2559 9.41083C45.0996 9.25455 44.8877 9.16675 44.6666 9.16675ZM48 9.16675C47.8352 9.16675 47.674 9.21562 47.537 9.30719C47.4 9.39876 47.2932 9.52891 47.2301 9.68118C47.167 9.83345 47.1505 10.001 47.1827 10.1627C47.2148 10.3243 47.2942 10.4728 47.4107 10.5893C47.5273 10.7059 47.6758 10.7852 47.8374 10.8174C47.9991 10.8496 48.1666 10.8331 48.3189 10.77C48.4712 10.7069 48.6013 10.6001 48.6929 10.4631C48.7844 10.326 48.8333 10.1649 48.8333 10.0001C48.8333 9.77907 48.7455 9.56711 48.5892 9.41083C48.433 9.25455 48.221 9.16675 48 9.16675ZM51.3333 9.16675C51.1685 9.16675 51.0074 9.21562 50.8703 9.30719C50.7333 9.39876 50.6265 9.52891 50.5634 9.68118C50.5003 9.83345 50.4838 10.001 50.516 10.1627C50.5481 10.3243 50.6275 10.4728 50.7441 10.5893C50.8606 10.7059 51.0091 10.7852 51.1707 10.8174C51.3324 10.8496 51.4999 10.8331 51.6522 10.77C51.8045 10.7069 51.9346 10.6001 52.0262 10.4631C52.1178 10.326 52.1666 10.1649 52.1666 10.0001C52.1666 9.77907 52.0788 9.56711 51.9226 9.41083C51.7663 9.25455 51.5543 9.16675 51.3333 9.16675ZM48 1.66675C46.9056 1.66675 45.822 1.8823 44.811 2.30109C43.7999 2.71987 42.8812 3.3337 42.1074 4.10752C40.5446 5.67033 39.6666 7.78994 39.6666 10.0001C39.6594 11.9244 40.3256 13.7905 41.55 15.2751L39.8833 16.9417C39.7677 17.0589 39.6894 17.2077 39.6582 17.3694C39.6271 17.5311 39.6445 17.6983 39.7083 17.8501C39.7775 18 39.8897 18.126 40.0307 18.2121C40.1716 18.2981 40.335 18.3404 40.5 18.3334H48C50.2101 18.3334 52.3297 17.4554 53.8925 15.8926C55.4553 14.3298 56.3333 12.2102 56.3333 10.0001C56.3333 7.78994 55.4553 5.67033 53.8925 4.10752C52.3297 2.54472 50.2101 1.66675 48 1.66675ZM48 16.6667H42.5083L43.2833 15.8917C43.3621 15.8146 43.4247 15.7225 43.4676 15.621C43.5105 15.5194 43.5329 15.4103 43.5333 15.3001C43.5302 15.0803 43.4403 14.8706 43.2833 14.7167C42.1921 13.6268 41.5126 12.1922 41.3606 10.6574C41.2085 9.12262 41.5933 7.58259 42.4493 6.29968C43.3054 5.01678 44.5798 4.07038 46.0554 3.62173C47.531 3.17307 49.1165 3.24992 50.5418 3.83918C51.9671 4.42843 53.144 5.49364 53.872 6.85332C54.6 8.213 54.834 9.78303 54.5343 11.2959C54.2345 12.8088 53.4194 14.171 52.2279 15.1503C51.0365 16.1296 49.5423 16.6655 48 16.6667Z" fill="#A8ABBB"/>
</svg>
