<svg width="20" height="20" viewBox="0 0 20 20" fill="none" xmlns="http://www.w3.org/2000/svg">
<path d="M5.83331 1.34576H3.60831C3.13667 1.33742 2.67839 1.50254 2.32046 1.80978C1.96253 2.11701 1.72987 2.54498 1.66664 3.01243V8.84576C1.72987 9.31321 1.96253 9.74117 2.32046 10.0484C2.67839 10.3556 3.13667 10.5208 3.60831 10.5124H5.83331M11.6666 12.1791V15.5124C11.6666 16.1755 11.4032 16.8114 10.9344 17.2802C10.4656 17.749 9.82968 18.0124 9.16664 18.0124L5.83331 10.5124V1.34576H15.2333C15.6352 1.34122 16.0253 1.48209 16.3316 1.74242C16.6378 2.00275 16.8397 2.365 16.9 2.76243L18.05 10.2624C18.0862 10.5013 18.0701 10.7452 18.0028 10.9772C17.9354 11.2092 17.8184 11.4238 17.6599 11.6062C17.5013 11.7885 17.305 11.9341 17.0846 12.0331C16.8642 12.132 16.6249 12.1818 16.3833 12.1791H11.6666Z" stroke="#EF1D27" stroke-width="2" stroke-linecap="round" stroke-linejoin="round"/>
</svg>
