<svg width="20" height="20" viewBox="0 0 20 20" fill="none" xmlns="http://www.w3.org/2000/svg">
<path d="M5.83331 1.55963H3.60831C3.13667 1.55129 2.67839 1.71641 2.32046 2.02364C1.96253 2.33088 1.72987 2.75884 1.66664 3.22629V9.05963C1.72987 9.52708 1.96253 9.95504 2.32046 10.2623C2.67839 10.5695 3.13667 10.7346 3.60831 10.7263H5.83331M11.6666 12.393V15.7263C11.6666 16.3893 11.4032 17.0252 10.9344 17.4941C10.4656 17.9629 9.82968 18.2263 9.16664 18.2263L5.83331 10.7263V1.55963H15.2333C15.6352 1.55508 16.0253 1.69596 16.3316 1.95629C16.6378 2.21662 16.8397 2.57887 16.9 2.97629L18.05 10.4763C18.0862 10.7152 18.0701 10.9591 18.0028 11.1911C17.9354 11.4231 17.8184 11.6377 17.6599 11.82C17.5013 12.0023 17.305 12.148 17.0846 12.2469C16.8642 12.3459 16.6249 12.3957 16.3833 12.393H11.6666Z" stroke="#A8ABBB" stroke-width="2" stroke-linecap="round" stroke-linejoin="round"/>
</svg>
