<svg width="20" height="20" viewBox="0 0 20 20" fill="none" xmlns="http://www.w3.org/2000/svg">
<path d="M5.83329 1.66659H3.33329C2.89127 1.66659 2.46734 1.84218 2.15478 2.15474C1.84222 2.4673 1.66663 2.89122 1.66663 3.33325V9.16659C1.66663 9.60861 1.84222 10.0325 2.15478 10.3451C2.46734 10.6577 2.89127 10.8333 3.33329 10.8333H5.83329M11.6666 12.4999V15.8333C11.6666 16.4963 11.4032 17.1322 10.9344 17.601C10.4656 18.0699 9.82967 18.3333 9.16663 18.3333L5.83329 10.8333V1.66659H15.2333C15.6352 1.66204 16.0253 1.80291 16.3315 2.06325C16.6378 2.32358 16.8397 2.68583 16.9 3.08325L18.05 10.5833C18.0862 10.8221 18.0701 11.066 18.0027 11.298C17.9354 11.5301 17.8184 11.7447 17.6598 11.927C17.5013 12.1093 17.305 12.255 17.0846 12.3539C16.8642 12.4528 16.6249 12.5027 16.3833 12.4999H11.6666Z" stroke="#303030" stroke-width="2" stroke-linecap="round" stroke-linejoin="round"/>
</svg>
