<svg width="20" height="20" viewBox="0 0 20 20" fill="none" xmlns="http://www.w3.org/2000/svg">
<path d="M14.1666 18.1195H16.6666C17.1087 18.1195 17.5326 17.944 17.8452 17.6314C18.1577 17.3188 18.3333 16.8949 18.3333 16.4529V10.6195C18.3333 10.1775 18.1577 9.7536 17.8452 9.44104C17.5326 9.12848 17.1087 8.95288 16.6666 8.95288H14.1666M8.33331 7.28621V3.95288C8.33331 3.28984 8.59671 2.65395 9.06555 2.18511C9.53439 1.71627 10.1703 1.45288 10.8333 1.45288L14.1666 8.95288V18.1195H4.76665C4.36471 18.1241 3.97467 17.9832 3.66839 17.7229C3.36212 17.4626 3.16025 17.1003 3.09998 16.7029L1.94998 9.20288C1.91372 8.96401 1.92983 8.72011 1.9972 8.48809C2.06456 8.25607 2.18156 8.04146 2.3401 7.85914C2.49863 7.67683 2.69491 7.53116 2.91534 7.43223C3.13576 7.3333 3.37506 7.28348 3.61665 7.28621H8.33331Z" stroke="#A8ABBB" stroke-width="2" stroke-linecap="round" stroke-linejoin="round"/>
</svg>
