<svg width="18" height="18" viewBox="0 0 18 18" fill="none" xmlns="http://www.w3.org/2000/svg">
<path d="M7.33342 9.83342H1.50008C1.27907 9.83342 1.06711 9.92121 0.910826 10.0775C0.754545 10.2338 0.666748 10.4457 0.666748 10.6667V16.5001C0.666748 16.7211 0.754545 16.9331 0.910826 17.0893C1.06711 17.2456 1.27907 17.3334 1.50008 17.3334H7.33342C7.55443 17.3334 7.76639 17.2456 7.92267 17.0893C8.07895 16.9331 8.16675 16.7211 8.16675 16.5001V10.6667C8.16675 10.4457 8.07895 10.2338 7.92267 10.0775C7.76639 9.92121 7.55443 9.83342 7.33342 9.83342ZM6.50008 15.6667H2.33341V11.5001H6.50008V15.6667ZM16.5001 0.666748H10.6667C10.4457 0.666748 10.2338 0.754545 10.0775 0.910826C9.92121 1.06711 9.83342 1.27907 9.83342 1.50008V7.33342C9.83342 7.55443 9.92121 7.76639 10.0775 7.92267C10.2338 8.07895 10.4457 8.16675 10.6667 8.16675H16.5001C16.7211 8.16675 16.9331 8.07895 17.0893 7.92267C17.2456 7.76639 17.3334 7.55443 17.3334 7.33342V1.50008C17.3334 1.27907 17.2456 1.06711 17.0893 0.910826C16.9331 0.754545 16.7211 0.666748 16.5001 0.666748ZM15.6667 6.50008H11.5001V2.33341H15.6667V6.50008ZM16.5001 9.83342H10.6667C10.4457 9.83342 10.2338 9.92121 10.0775 10.0775C9.92121 10.2338 9.83342 10.4457 9.83342 10.6667V16.5001C9.83342 16.7211 9.92121 16.9331 10.0775 17.0893C10.2338 17.2456 10.4457 17.3334 10.6667 17.3334H16.5001C16.7211 17.3334 16.9331 17.2456 17.0893 17.0893C17.2456 16.9331 17.3334 16.7211 17.3334 16.5001V10.6667C17.3334 10.4457 17.2456 10.2338 17.0893 10.0775C16.9331 9.92121 16.7211 9.83342 16.5001 9.83342ZM15.6667 15.6667H11.5001V11.5001H15.6667V15.6667ZM7.33342 0.666748H1.50008C1.27907 0.666748 1.06711 0.754545 0.910826 0.910826C0.754545 1.06711 0.666748 1.27907 0.666748 1.50008V7.33342C0.666748 7.55443 0.754545 7.76639 0.910826 7.92267C1.06711 8.07895 1.27907 8.16675 1.50008 8.16675H7.33342C7.55443 8.16675 7.76639 8.07895 7.92267 7.92267C8.07895 7.76639 8.16675 7.55443 8.16675 7.33342V1.50008C8.16675 1.27907 8.07895 1.06711 7.92267 0.910826C7.76639 0.754545 7.55443 0.666748 7.33342 0.666748ZM6.50008 6.50008H2.33341V2.33341H6.50008V6.50008Z" fill="#A8ABBB"/>
</svg>
